<?xml version="1.0" standalone="no"?>
<!DOCTYPE svg PUBLIC "-//W3C//DTD SVG 20010904//EN"
 "http://www.w3.org/TR/2001/REC-SVG-20010904/DTD/svg10.dtd">
<svg version="1.0" xmlns="http://www.w3.org/2000/svg"
 width="458.000000pt" height="122.000000pt" viewBox="0 0 458.000000 122.000000"
 preserveAspectRatio="xMidYMid meet">

<g transform="translate(0.000000,122.000000) scale(0.100000,-0.100000)"
fill="#000000" stroke="none">
<path d="M332 1180 c-18 -4 -52 -22 -74 -40 -43 -35 -51 -32 -64 18 -7 24 -34
31 -34 7 0 -8 7 -32 16 -54 14 -35 14 -42 1 -63 -20 -31 -47 -124 -47 -162 0
-90 55 -168 126 -179 53 -9 123 9 165 43 l35 28 11 -29 c12 -32 54 -53 87 -43
11 3 38 22 59 42 l37 36 0 -27 c0 -51 56 -56 118 -10 31 23 32 23 32 4 0 -11
11 -27 23 -36 33 -22 80 -9 119 31 40 41 44 41 52 8 13 -52 116 -67 176 -25
14 10 45 20 70 24 35 4 53 14 77 41 18 20 33 43 33 51 0 24 -13 17 -35 -18
-19 -29 -68 -57 -80 -45 -3 3 2 21 10 41 23 55 19 111 -9 143 -20 24 -30 28
-75 27 -78 -1 -123 -35 -166 -127 -39 -80 -74 -120 -102 -114 -22 5 -20 33 8
133 11 39 23 78 25 88 4 14 -1 17 -29 17 -34 0 -34 -1 -55 -73 -23 -79 -79
-157 -112 -157 -28 0 -30 11 -14 79 16 69 13 81 -19 81 -18 0 -26 -10 -39 -47
-23 -65 -74 -125 -102 -121 -47 7 -21 114 40 168 38 33 91 40 139 18 20 -9 28
-9 38 1 18 18 -23 48 -78 56 -85 13 -166 -37 -225 -141 -40 -69 -79 -96 -146
-102 -46 -4 -56 -1 -78 21 -37 37 -51 99 -37 171 6 33 14 63 19 68 5 5 23 1
42 -8 98 -49 210 2 210 96 0 44 -14 66 -51 79 -36 12 -49 12 -97 1z m82 -63
c17 -27 -12 -70 -56 -81 -40 -10 -98 7 -98 28 0 14 34 47 65 65 28 15 76 9 89
-12z m771 -230 c-1 -50 -4 -61 -24 -76 -13 -10 -21 -23 -18 -28 10 -17 -19
-35 -50 -31 -24 3 -28 8 -31 38 -5 44 12 99 39 134 16 21 28 26 53 24 31 -3
31 -3 31 -61z"/>
<path d="M1820 1170 c-21 -16 -41 -20 -113 -20 -125 0 -177 -27 -177 -90 0
-29 53 -80 82 -80 32 0 73 23 73 40 0 11 -11 15 -40 15 -33 0 -41 4 -43 21 -5
34 24 48 116 54 48 4 88 6 89 5 1 0 -10 -41 -25 -90 l-28 -89 -49 -11 c-101
-23 -147 -65 -149 -136 -1 -67 56 -100 135 -79 46 13 82 53 103 117 l16 49 43
-4 c23 -2 45 -7 50 -11 4 -4 -2 -36 -13 -72 -11 -35 -20 -65 -20 -65 0 -1 10
-4 22 -7 36 -10 54 9 73 78 15 56 21 66 44 71 14 4 37 13 51 20 l26 12 -4 -63
c-4 -60 -2 -66 24 -93 50 -50 155 -51 217 -2 31 25 36 25 30 1 -3 -13 2 -21
15 -25 32 -11 51 4 63 48 26 101 34 118 71 151 66 60 79 41 53 -73 -9 -43 -15
-88 -14 -101 6 -36 48 -47 94 -25 53 25 98 96 149 239 7 19 8 19 27 -4 19 -24
19 -24 -2 -60 -34 -57 -48 -107 -40 -138 16 -60 104 -66 166 -12 l33 29 5 -29
c11 -54 82 -49 145 12 29 28 32 29 32 10 0 -12 12 -31 27 -43 34 -27 66 -20
112 23 26 24 32 27 27 12 -14 -37 -56 -207 -56 -227 0 -16 6 -19 31 -16 29 3
33 8 44 50 11 46 66 127 123 181 l29 28 7 -26 c14 -55 93 -54 147 1 l32 33 16
-32 c13 -27 21 -31 46 -29 16 2 36 8 43 14 10 9 10 5 1 -18 -6 -16 -11 -54
-10 -85 1 -37 -4 -61 -13 -68 -7 -6 -62 -14 -122 -17 -141 -7 -169 -21 -168
-85 0 -24 3 -57 6 -74 5 -32 2 -45 -32 -139 -21 -58 -31 -181 -16 -204 5 -8
13 -9 26 -2 12 7 21 30 30 77 13 78 29 120 72 186 l31 49 -21 51 c-18 41 -20
54 -10 63 7 7 56 15 108 19 115 8 159 18 188 45 26 25 27 34 7 90 -27 78 1
107 85 89 41 -9 61 -8 103 5 37 11 108 17 247 19 111 2 211 9 232 16 40 13 57
43 38 66 -23 28 -211 104 -259 105 -9 1 -34 8 -56 16 -22 9 -80 26 -130 39
-85 22 -118 27 -247 40 -102 10 -144 17 -218 32 -41 8 -82 16 -90 18 -20 4
-116 13 -220 21 -47 3 -116 10 -155 15 -38 5 -128 11 -200 13 -123 5 -257 13
-335 22 -19 2 -134 6 -255 9 -169 4 -233 2 -278 -9 -52 -12 -58 -12 -52 2 6
17 -11 32 -37 32 -24 0 -42 -39 -77 -162 l-29 -103 -43 3 c-24 2 -47 6 -50 10
-4 4 11 63 32 132 21 68 37 125 36 126 -1 2 -13 5 -27 8 -17 4 -33 0 -50 -14z
m805 -94 c11 -3 48 -5 83 -5 56 -1 62 -3 53 -18 -5 -11 -5 -26 0 -41 11 -29 0
-67 -43 -156 -33 -70 -64 -106 -90 -106 -24 0 -23 25 3 113 23 76 20 111 -12
127 -26 15 -78 -2 -109 -35 -30 -32 -42 -32 -30 0 8 22 6 27 -15 37 -34 15
-41 6 -65 -78 -22 -78 -42 -109 -90 -141 -61 -42 -160 -22 -160 31 0 20 5 23
43 22 101 -2 168 75 122 140 -30 44 -129 37 -175 -11 -12 -13 -26 -22 -31 -19
-4 2 -23 -5 -41 -16 -36 -22 -68 -26 -68 -9 0 22 23 105 33 117 14 18 72 41
132 52 47 9 415 5 460 -4z m435 -26 c8 -4 30 -5 47 -3 29 5 274 -12 325 -22
10 -2 44 -5 74 -6 54 -2 77 -12 51 -22 -8 -3 -22 -36 -32 -74 -10 -37 -24 -79
-31 -93 -12 -24 -125 -142 -131 -137 -1 2 11 50 27 107 21 78 26 107 17 112
-28 18 -44 5 -75 -62 -33 -71 -69 -107 -97 -96 -36 14 0 135 52 176 31 24 92
26 132 5 26 -13 30 -13 41 1 11 12 10 17 -6 29 -35 26 -108 38 -152 24 -59
-17 -87 -44 -145 -139 -36 -58 -61 -88 -80 -94 -14 -5 -30 -7 -33 -3 -4 4 4
51 18 104 15 54 28 105 30 113 2 10 -7 16 -29 18 -31 3 -33 2 -49 -55 -23 -80
-48 -126 -85 -157 -75 -63 -118 -2 -60 84 17 25 31 51 31 58 0 7 -17 31 -39
55 -21 23 -40 54 -43 69 l-5 26 116 -5 c64 -3 123 -9 131 -13z m642 -56 c15
-5 15 -9 2 -57 -25 -86 -63 -156 -94 -172 -50 -26 -55 -3 -24 120 23 90 25
109 13 117 -14 9 64 3 103 -8z m157 -24 c9 0 23 -4 31 -10 12 -8 12 -11 -2
-27 -8 -10 -26 -38 -38 -63 -33 -67 -69 -110 -91 -110 -25 0 -25 27 2 136 l22
86 30 -6 c16 -3 37 -6 46 -6z m-1596 -32 c6 -18 -19 -64 -38 -72 -9 -3 -30 -6
-46 -6 -28 0 -29 2 -18 23 29 57 89 89 102 55z m1769 -5 c12 -6 -19 -60 -37
-67 -9 -3 -30 -6 -46 -6 -29 0 -29 0 -14 29 26 51 58 65 97 44z m228 -55 c128
-41 155 -55 139 -74 -9 -11 -39 -14 -131 -14 -111 0 -120 1 -113 18 25 59 12
71 -20 19 l-20 -32 -98 -2 c-85 -1 -97 1 -97 16 0 14 9 17 48 17 60 1 106 24
122 64 15 36 17 36 170 -12z m-2525 -20 c-24 -80 -62 -122 -92 -102 -43 28 13
124 73 124 22 0 24 -3 19 -22z m2115 -63 c0 -8 -9 -19 -21 -25 -20 -11 -20
-11 -4 14 20 30 25 32 25 11z"/>
<path d="M888 1094 c-10 -22 -10 -28 5 -39 25 -18 56 -7 63 21 8 30 -2 44 -32
44 -17 0 -28 -8 -36 -26z"/>
<path d="M1015 603 c-33 -1 -161 -8 -285 -14 -124 -6 -235 -11 -247 -10 -12 0
-25 -3 -28 -8 -7 -13 271 -16 1010 -12 587 2 1322 -12 1337 -27 4 -4 -237 -6
-535 -5 -343 2 -564 -1 -602 -8 -88 -15 -189 -27 -280 -34 -44 -3 -104 -10
-134 -15 -30 -6 -72 -10 -93 -10 -32 0 -38 -3 -38 -21 0 -19 4 -20 43 -15 73
9 459 27 473 22 8 -3 14 -2 14 2 0 4 9 8 20 8 11 0 20 -3 20 -6 0 -3 116 -5
258 -4 408 1 442 -16 82 -41 -123 -9 -226 -18 -228 -20 -16 -16 53 -16 212 -1
252 24 366 39 366 48 0 4 -4 9 -10 9 -5 1 -13 2 -17 3 -5 2 -29 6 -56 10 -124
21 -27 26 413 20 492 -7 489 -7 490 32 0 20 -203 63 -375 79 -153 14 -412 19
-1055 20 -382 1 -722 0 -755 -2z"/>
<path d="M1583 373 c14 -14 43 -19 145 -24 80 -4 156 -15 206 -28 43 -12 81
-20 83 -17 3 3 -8 8 -23 12 -16 4 -47 15 -69 25 -22 10 -59 19 -81 19 -28 0
-44 5 -48 15 -4 12 -27 15 -118 15 -106 0 -111 -1 -95 -17z"/>
</g>
</svg>
